<svg width="24" height="23" viewBox="0 0 24 23" fill="none" xmlns="http://www.w3.org/2000/svg">
<path d="M17.5632 0.496094H6.12446C2.96426 0.496094 0.394043 3.13518 0.394043 6.38004V17.1253C0.394043 20.3702 2.96426 23.0093 6.12446 23.0093H17.5632C20.7234 23.0093 23.2936 20.3702 23.2936 17.1253V6.38004C23.2936 3.13518 20.7234 0.496094 17.5632 0.496094ZM2.4153 6.38004C2.4153 4.27979 4.07901 2.57151 6.12446 2.57151H17.5632C19.6087 2.57151 21.2724 4.27979 21.2724 6.38004V17.1253C21.2724 19.2256 19.6087 20.9339 17.5632 20.9339H6.12446C4.07901 20.9339 2.4153 19.2256 2.4153 17.1253V6.38004Z" fill="#1C1C1B"/>
<path d="M11.8435 17.227C14.7829 17.227 17.1743 14.7715 17.1743 11.7534C17.1743 8.7353 14.7829 6.27979 11.8435 6.27979C8.90416 6.27979 6.5127 8.7353 6.5127 11.7534C6.5127 14.7715 8.90416 17.227 11.8435 17.227ZM11.8435 8.35628C13.6681 8.35628 15.152 9.87991 15.152 11.7534C15.152 13.6269 13.6681 15.1505 11.8435 15.1505C10.0189 15.1505 8.53501 13.6269 8.53501 11.7534C8.53501 9.87991 10.0189 8.35628 11.8435 8.35628Z" fill="#1C1C1B"/>
<path d="M17.6685 7.16296C18.4604 7.16296 19.105 6.50103 19.105 5.68793C19.105 4.87482 18.4604 4.21289 17.6685 4.21289C16.8766 4.21289 16.2319 4.87482 16.2319 5.68793C16.2319 6.50103 16.8766 7.16296 17.6685 7.16296Z" fill="#1C1C1B"/>
</svg>
