<svg width="23" height="18" viewBox="0 0 23 18" fill="none" xmlns="http://www.w3.org/2000/svg">
<path d="M22.2475 1.88343C21.7407 2.4093 21.0381 2.73433 20.2599 2.73433C20.161 2.73433 20.0622 2.72893 19.9665 2.71813C20.7784 2.21817 21.4052 1.4353 21.7175 0.501257C21.7175 0.501257 21.7185 0.501257 21.7185 0.500177C21.7617 0.374918 21.7985 0.248578 21.8279 0.11792C21.1854 0.823043 20.3072 1.30032 19.3218 1.41371C19.1704 1.43206 19.0169 1.4407 18.8612 1.4407C18.8118 1.4407 18.7645 1.43962 18.7171 1.43638C18.3838 1.0768 17.9863 0.779851 17.5456 0.561727C17.0545 0.315527 16.5055 0.170831 15.9261 0.152474C15.8787 0.149235 15.8315 0.148155 15.782 0.148155C15.2909 0.148155 14.8198 0.23778 14.3844 0.402993C14.2729 0.445106 14.1646 0.490459 14.0584 0.54337C12.6786 1.20746 11.7237 2.64686 11.7237 4.31519C11.7237 4.65749 11.7647 4.99008 11.8394 5.30754C11.4166 5.29027 10.9981 5.24815 10.5879 5.18552C10.4565 5.16393 10.325 5.14125 10.1946 5.11533C9.14821 4.91557 8.15022 4.57218 7.22267 4.1057C6.39292 3.68889 5.61892 3.1749 4.91537 2.57667C4.32329 2.07564 3.7817 1.51629 3.29795 0.90511C3.27691 0.879194 3.25585 0.852199 3.23586 0.826283C3.20747 0.870556 3.18121 0.914829 3.15807 0.961261C2.81944 1.5692 2.62804 2.27216 2.62804 3.02156C2.62804 3.04424 2.62801 3.06907 2.62906 3.09175C2.63748 3.65326 2.75315 4.18777 2.96032 4.67369C3.04866 4.88965 3.15596 5.09374 3.279 5.28703C3.64182 5.86041 4.13711 6.33769 4.72183 6.66812C4.74812 6.68539 4.77546 6.69943 4.80281 6.71239C4.76074 6.72103 4.71765 6.72859 4.67453 6.73291C4.55465 6.7491 4.43055 6.75774 4.30646 6.75774C3.68388 6.75774 3.10443 6.55798 2.63014 6.21783C2.62699 6.25347 2.62696 6.29018 2.62696 6.32689C2.62696 7.51686 3.11282 8.5902 3.89104 9.34716C4.49679 9.94106 5.28029 10.3395 6.15105 10.4561C5.83766 10.5738 5.499 10.6375 5.1467 10.6375C4.76495 10.6375 4.39897 10.563 4.06455 10.4259C4.56303 12.0899 6.04905 13.3101 7.82002 13.3641C6.73788 14.5184 5.2182 15.2354 3.53662 15.2354C2.49128 15.2354 1.50906 14.9579 0.657227 14.472C2.70478 16.2915 5.3749 17.3907 8.29532 17.3907C14.7493 17.3907 19.9802 12.0197 19.9802 5.39285C19.9802 5.02787 19.9644 4.66721 19.9328 4.31087C21.0003 3.87786 21.8469 2.99348 22.2475 1.88451V1.88343Z" fill="#1C1C1B"/>
</svg>
