<svg width="24" height="18" viewBox="0 0 24 18" fill="none" xmlns="http://www.w3.org/2000/svg">
<path d="M23.5854 5.0358C23.4413 3.59748 23.129 2.00906 21.9806 1.17328C21.0898 0.525388 19.9204 0.501636 18.8288 0.502716C16.5204 0.504876 14.212 0.507042 11.9037 0.509201C9.68366 0.511361 7.46365 0.513514 5.24363 0.515674C4.31608 0.515674 3.41481 0.442246 2.55351 0.853658C1.81315 1.20784 1.23474 1.88058 0.887694 2.62889C0.403937 3.67092 0.301941 4.85008 0.2441 6.00225C0.136832 8.09927 0.148407 10.2028 0.27776 12.2976C0.371356 13.8277 0.610066 15.5176 1.76162 16.4927C2.78277 17.3566 4.22352 17.3987 5.54649 17.3998C9.74887 17.403 13.9513 17.4062 18.1536 17.4106C18.6921 17.4106 19.2547 17.4009 19.8037 17.3393C20.8848 17.2194 21.9143 16.902 22.6084 16.0802C23.3088 15.252 23.4886 14.0977 23.5959 13.006C23.8546 10.3583 23.8514 7.68245 23.5854 5.0358ZM9.47335 12.6702V5.24314L15.738 8.95664L9.47335 12.6702Z" fill="#1C1C1B"/>
</svg>
