<svg width="189" height="187" viewBox="0 0 189 187" fill="none" xmlns="http://www.w3.org/2000/svg">
<path d="M61.8254 61.7106L61.8111 61.7084C46.2777 59.3307 31.115 58.0099 19.7301 59.3194C14.0352 59.9744 9.33587 61.2826 6.01283 63.4057C2.71352 65.5137 0.771379 68.421 0.537874 72.3459L0.537873 72.3459C0.315872 76.0737 1.0794 78.8485 2.55927 80.9045C4.04106 82.9631 6.28272 84.359 9.12486 85.2477C14.8359 87.0336 22.816 86.7262 31.3835 85.7742C35.7169 85.2928 39.0156 85.6877 41.3541 86.6034C43.6923 87.519 45.1088 88.9752 45.5591 90.6188C46.0115 92.2702 45.4537 93.9863 44.1001 95.3237C42.7501 96.6574 40.6092 97.6238 37.8257 97.8692C32.5447 98.3354 29.0969 100.487 27.4363 103.154C25.7812 105.813 25.8475 109.064 27.7433 111.898C28.7748 113.44 30.4053 113.929 32.5703 113.68C34.7553 113.429 37.3794 112.431 40.211 111.116C41.9525 110.307 43.7389 109.395 45.5301 108.48C46.6543 107.906 47.7803 107.331 48.8984 106.78C51.7724 105.364 54.5762 104.115 57.0161 103.545C61.9831 102.386 65.785 104.38 67.641 107.881C69.4795 111.349 69.3684 116.211 66.7619 120.772C66.5301 121.178 66.2696 121.629 65.9852 122.123C63.1431 127.049 57.9129 136.117 55.0967 144.783C53.5457 149.556 52.7519 154.136 53.4425 157.807C53.7859 159.633 54.4942 161.221 55.6489 162.502C56.8029 163.782 58.428 164.783 60.6507 165.396C62.8647 166.007 64.8118 165.944 66.54 165.375C68.2725 164.805 69.8171 163.715 71.2036 162.222C73.9874 159.226 76.0838 154.662 77.7356 149.665C79.3841 144.678 80.5711 139.321 81.5673 134.774L81.6407 134.439C82.1089 132.301 82.5367 130.348 82.9509 128.719C83.3837 127.018 83.8134 125.623 84.2798 124.732C85.2094 122.957 86.5255 121.904 88.1233 121.483C89.7001 121.067 91.4916 121.282 93.3661 121.914C97.1097 123.175 101.373 126.162 105.352 129.664L105.022 130.039L105.352 129.664C109.269 133.111 112.461 133.371 114.261 131.911C116.114 130.408 116.897 126.803 115.326 121.621L115.326 121.621C114.513 118.938 114.6 116.815 115.482 115.298C116.372 113.765 117.997 112.978 119.965 112.811C123.87 112.478 129.385 114.542 134.509 118.545C139.568 122.497 146.45 126.919 152.614 128.676C155.696 129.554 158.538 129.749 160.868 128.946C163.169 128.153 165.046 126.362 166.171 123.094C167.559 119.064 166.766 115.855 164.792 113.125C162.794 110.361 159.577 108.08 156.1 105.996C154.735 105.179 153.343 104.399 151.977 103.634C151.606 103.426 151.237 103.219 150.871 103.013C149.163 102.051 147.523 101.104 146.093 100.14C144.665 99.1772 143.422 98.1819 142.523 97.116C141.62 96.0467 141.041 94.8789 140.996 93.5825L141.496 93.5652L140.996 93.5824C140.951 92.2878 141.411 91.2583 142.246 90.4638C143.063 89.6872 144.216 89.1554 145.54 88.7736C148.182 88.0115 151.713 87.7925 155.185 87.5952L155.552 87.5744C158.934 87.3829 162.237 87.1958 164.746 86.5686C166.044 86.2441 167.078 85.813 167.789 85.2407C168.482 84.6834 168.873 83.9909 168.906 83.0807L168.906 83.0806C168.941 82.1498 168.632 81.417 168.054 80.8089C167.462 80.1858 166.57 79.678 165.425 79.2625C163.128 78.4295 159.988 78.0271 156.708 77.6892C156.169 77.6336 155.626 77.5798 155.083 77.526C152.356 77.2558 149.633 76.986 147.4 76.496C146.06 76.2017 144.858 75.8208 143.92 75.2917C142.979 74.761 142.257 74.054 141.969 73.0938C141.411 71.2357 142.293 69.5596 143.941 68.0666C145.589 66.5742 148.109 65.1588 151.134 63.7658C154.882 62.0393 159.501 60.3072 164.345 58.4904C167.309 57.3786 170.358 56.2352 173.344 55.0419C182.041 51.5659 186.946 44.8182 187.785 38.0976C188.622 31.393 185.426 24.6455 177.758 21.0703L177.97 20.6172L177.758 21.0703C170.698 17.7783 164.072 19.6036 158.373 23.6357C152.66 27.6775 147.935 33.9058 144.782 39.2667L144.351 39.0132L144.782 39.2667C141.535 44.7845 136.499 47.8776 131.971 48.8973C129.709 49.4068 127.551 49.4039 125.793 48.9052C124.035 48.4065 122.634 47.3951 122.003 45.8636C121.392 44.3805 121.47 42.7465 121.818 41.0827C122.095 39.7601 122.556 38.3652 123.018 36.9664C123.135 36.6118 123.252 36.257 123.366 35.903C124.517 32.3384 125.386 28.813 123.614 25.6177C121.832 22.4066 117.934 21.5535 114.594 23.0199C111.294 24.469 108.556 28.209 109.323 34.1926C110.133 40.5133 107.874 45.4225 104.241 47.5248C100.569 49.6492 95.7144 48.7883 91.6367 44.0191L92.0168 43.6942L91.6367 44.0191C87.6741 39.3838 81.6823 32.7848 75.5525 28.4518C72.4857 26.284 69.4245 24.7129 66.596 24.2143C63.7933 23.7203 61.2274 24.2774 59.061 26.3689C57.9769 27.4158 57.3837 28.5261 57.156 29.6775C56.9272 30.8341 57.0602 32.0692 57.4893 33.3705C58.3527 35.9891 60.3853 38.7898 62.8549 41.5755C64.7544 43.7181 66.8797 45.8169 68.8785 47.7909C69.4732 48.3782 70.0567 48.9544 70.6197 49.5174C71.8428 50.7406 72.9698 51.9023 73.8922 52.9705C74.8101 54.0334 75.5493 55.0307 75.9752 55.9252L61.8254 61.7106ZM61.8254 61.7106L61.8398 61.712M61.8254 61.7106L61.8398 61.712M61.8398 61.712L61.8868 61.2142M61.8398 61.712L61.8868 61.2142M61.8868 61.2142C61.8398 61.712 61.8399 61.712 61.8402 61.712M61.8868 61.2142L61.8402 61.712M61.8402 61.712L61.8409 61.7121M61.8402 61.712L61.8409 61.7121M61.8409 61.7121L61.8436 61.7123M61.8409 61.7121L61.8436 61.7123M61.8436 61.7123L61.8534 61.7132M61.8436 61.7123L61.8534 61.7132M61.8534 61.7132L61.8909 61.7166M61.8534 61.7132L61.8909 61.7166M61.8909 61.7166C61.9237 61.7195 61.9718 61.7236 62.0341 61.7287M61.8909 61.7166L62.0341 61.7287M62.0341 61.7287C62.1586 61.7389 62.3401 61.7528 62.5694 61.7682M62.0341 61.7287L62.5694 61.7682M62.5694 61.7682C63.028 61.7989 63.6785 61.8352 64.449 61.8577M62.5694 61.7682L64.449 61.8577M64.449 61.8577C65.9869 61.9027 68.0154 61.8933 69.9517 61.6714M64.449 61.8577L69.9517 61.6714M69.9517 61.6714C71.8658 61.4521 73.7782 61.0168 75.0172 60.1528M69.9517 61.6714L75.0172 60.1528M75.0172 60.1528C75.6489 59.7122 76.1376 59.1377 76.3321 58.3974M75.0172 60.1528L76.3321 58.3974M76.3321 58.3974C76.5265 57.6575 76.4063 56.8305 75.9752 55.9253L76.3321 58.3974ZM0.0387713 72.3162H0.0387568H0.0387713Z" stroke="#DF6019"/>
<path d="M131.639 8.32384L131.639 8.32386C131.104 11.7873 127.103 14.2204 122.498 13.51C117.893 12.7987 114.813 9.27088 115.348 5.80855L115.348 5.80853C115.883 2.34513 119.884 -0.0880436 124.488 0.622334C129.094 1.33366 132.174 4.86144 131.639 8.32384Z" stroke="#DF6019"/>
<path d="M180.259 136.773L180.259 136.773C183.939 133.126 184.422 127.922 181.661 125.135C178.899 122.348 173.693 122.784 170.011 126.432L180.259 136.773ZM180.259 136.773C176.578 140.421 171.371 140.856 168.61 138.07L168.61 138.07M180.259 136.773L168.61 138.07M168.61 138.07C165.848 135.283 166.331 130.08 170.011 126.432L168.61 138.07Z" stroke="#DF6019"/>
<path d="M121.07 136.598C121.998 138.296 121.081 140.786 118.708 142.085L121.07 136.598ZM118.708 142.085C116.334 143.383 113.744 142.812 112.815 141.114L118.708 142.085ZM112.815 141.114C111.887 139.415 112.804 136.926 115.177 135.628L112.815 141.114ZM115.177 135.628C117.552 134.33 120.142 134.901 121.07 136.598L115.177 135.628Z" stroke="#DF6019"/>
<path d="M64.3319 180.068L64.3319 180.068C64.8871 176.186 61.3969 172.297 56.2662 171.563L64.3319 180.068ZM64.3319 180.068C63.7767 183.953 59.3362 186.708 54.2067 185.975L54.2066 185.975M64.3319 180.068L54.2066 185.975M54.2066 185.975C49.0761 185.242 45.5857 181.353 46.1409 177.469L46.1409 177.469M54.2066 185.975L46.1409 177.469M46.1409 177.469C46.6951 173.585 51.1363 170.831 56.2661 171.563L46.1409 177.469Z" stroke="#DF6019"/>
<path d="M136.207 144.436L136.207 144.436C136.544 145.052 136.24 146.065 135.215 146.627C134.19 147.187 133.173 146.896 132.836 146.281C132.499 145.665 132.804 144.652 133.829 144.092L133.829 144.092C134.855 143.53 135.871 143.822 136.207 144.436Z" stroke="#DF6019"/>
<path d="M59.7264 116.777L59.7261 116.778C58.9479 118.204 56.7554 118.705 54.7196 117.593L54.7195 117.593C52.6856 116.483 51.9234 114.366 52.7018 112.941C53.48 111.516 55.6738 111.015 57.7072 112.126L57.7073 112.126C59.7421 113.238 60.5051 115.354 59.7264 116.777Z" stroke="#DF6019"/>
<path d="M184.575 87.6679L184.575 87.6679C186.491 87.403 187.946 85.1842 187.575 82.5027C187.203 79.8224 185.202 78.0817 183.284 78.3465L184.575 87.6679ZM184.575 87.6679C182.658 87.9337 180.657 86.1934 180.284 83.5116M184.575 87.6679L180.284 83.5116M180.284 83.5116C179.914 80.8311 181.368 78.6123 183.284 78.3465L180.284 83.5116Z" stroke="#DF6019"/>
<path d="M9.40477 111.004L9.40492 111.004C12.4633 109.294 16.8434 110.95 19.1164 115.017C21.3894 119.085 20.5044 123.684 17.4459 125.394C14.3866 127.104 10.0064 125.448 7.73346 121.379C5.46132 117.311 6.34553 112.713 9.40477 111.004Z" stroke="#DF6019"/>
<path d="M52.1832 15.507L52.183 15.5069C49.2567 13.5811 44.7684 14.9173 42.2076 18.8099L52.1832 15.507ZM52.1832 15.507C55.1114 17.432 55.6618 22.0828 53.1021 25.9755M52.1832 15.507L42.2076 18.81C39.648 22.7036 40.1993 27.3544 43.1266 29.2794C46.0539 31.2045 50.5415 29.869 53.1021 25.9755M53.1021 25.9755L53.5198 26.2502L53.1021 25.9755Z" stroke="#DF6019"/>
<path d="M185.45 62.8357L185.449 62.835C184.966 62.2752 183.859 62.2075 182.935 63.0053C182.013 63.803 181.922 64.9088 182.407 65.47L185.45 62.8357ZM185.45 62.8357C185.935 63.3953 185.844 64.5008 184.921 65.3001L185.45 62.8357ZM184.921 65.3003C184 66.0979 182.892 66.03 182.407 65.4701L184.921 65.3003Z" stroke="#DF6019"/>
<path d="M62.371 51.2121L62.3711 51.2122C62.8049 52.0049 62.4013 53.2591 61.1549 53.9404L61.1545 53.9407C59.9092 54.6227 58.6346 54.2849 58.2025 53.4935L58.2024 53.4934C57.7691 52.7003 58.1724 51.447 59.4176 50.7658L59.4177 50.7658C60.6643 50.0835 61.9381 50.4205 62.371 51.2121Z" stroke="#DF6019"/>
<path d="M103.562 20.9791L103.562 20.9789C103.008 19.9648 101.412 19.5713 99.8886 20.4039C98.3665 21.236 97.8372 22.7942 98.3914 23.8083L103.562 20.9791ZM103.562 20.9791C104.117 21.9938 103.587 23.5501 102.065 24.3825L102.065 24.3826M103.562 20.9791L102.065 24.3826M102.065 24.3826C100.542 25.2158 98.9455 24.821 98.3915 23.8084L102.065 24.3826ZM104.001 20.7392C104.735 22.0812 103.975 23.9082 102.305 24.8212L99.6487 19.9652C101.319 19.0522 103.268 19.3972 104.001 20.7392Z" stroke="#DF6019"/>
<path d="M135.44 37.0769L135.439 37.0768C134.539 36.3333 133.485 36.4288 133.039 36.9701C132.593 37.5114 132.701 38.5643 133.603 39.3072C134.505 40.0504 135.559 39.9553 136.005 39.4143L135.44 37.0769ZM135.44 37.0769C136.342 37.8211 136.45 38.8741 136.005 39.4142L135.44 37.0769Z" stroke="#DF6019"/>
<g opacity="0.5">
<path d="M177.362 27.9383L177.362 27.9382C177.19 27.7092 177.185 27.5322 177.223 27.4044C177.267 27.2576 177.39 27.1001 177.591 26.9836C178.003 26.7456 178.532 26.7778 178.85 27.2013C183.307 33.1475 181.582 40.783 176.763 46.0072C176.569 46.2176 176.378 46.2708 176.215 46.2613C176.037 46.2509 175.841 46.1607 175.679 45.9982C175.352 45.6699 175.273 45.1943 175.625 44.8122L175.625 44.8122C179.939 40.1363 181.463 33.4086 177.362 27.9383Z" stroke="#DF6019"/>
</g>
<g opacity="0.5">
<path d="M161.376 121.035L161.376 121.034C161.617 120.878 161.814 120.875 161.966 120.924C162.133 120.978 162.298 121.114 162.414 121.312C162.648 121.715 162.604 122.2 162.169 122.483L162.441 122.902L162.169 122.483C159.05 124.508 155.773 124.732 152.77 123.761C149.753 122.785 146.998 120.596 144.991 117.778L144.991 117.778C144.825 117.544 144.82 117.36 144.862 117.223C144.909 117.068 145.037 116.908 145.238 116.792C145.646 116.556 146.159 116.592 146.465 117.021L146.465 117.021C148.174 119.421 150.513 121.314 153.127 122.164C155.755 123.019 158.641 122.811 161.376 121.035ZM144.584 118.068L144.584 118.068L144.584 118.068Z" stroke="#DF6019"/>
</g>
<g opacity="0.5">
<path d="M59.4841 145.592L59.4841 145.592C58.409 147.853 57.7788 150.593 58.1199 153.04C58.4651 155.517 59.8137 157.703 62.6624 158.713C63.1554 158.888 63.3226 159.362 63.1992 159.815C63.1385 160.037 63.0153 160.206 62.8734 160.295C62.746 160.376 62.5617 160.421 62.2916 160.325C58.8686 159.11 57.1535 156.672 56.6113 153.816C56.0635 150.931 56.7138 147.598 58.1001 144.685L58.1002 144.685C58.2225 144.428 58.3819 144.332 58.5245 144.301C58.6846 144.266 58.8884 144.3 59.0877 144.416C59.4929 144.654 59.7111 145.115 59.4841 145.592Z" stroke="#DF6019"/>
</g>
<g opacity="0.5">
<path d="M6.75323 71.9688L6.75328 71.9686C7.81532 68.043 11.0732 66.0708 14.6949 65.1785C18.3152 64.2865 22.4061 64.4395 25.3762 64.8366L25.3762 64.8366C25.6582 64.8744 25.8078 64.7918 25.8945 64.7006C25.9957 64.5941 26.0694 64.4118 26.0684 64.1782C26.0664 63.6999 25.7699 63.2492 25.2437 63.1788C21.6918 62.7039 17.1941 62.7346 13.3176 63.9293C9.44888 65.1215 6.26745 67.4454 5.16364 71.5245L6.75323 71.9688ZM6.75323 71.9688C6.679 72.2435 6.53112 72.3889 6.37181 72.4645M6.75323 71.9688L6.37181 72.4645M6.37181 72.4645C6.19991 72.5461 5.97787 72.5625 5.75683 72.5017M6.37181 72.4645L5.75683 72.5017M5.75683 72.5017C5.53589 72.441 5.35179 72.313 5.24375 72.1531M5.75683 72.5017L5.24375 72.1531M5.24375 72.1531C5.14332 72.0044 5.08902 71.8012 5.16357 71.5248L5.24375 72.1531Z" stroke="#DF6019"/>
</g>
<g opacity="0.5">
<path d="M60.8853 30.106L60.8852 30.1061C60.5008 30.4575 60.0226 30.3767 59.6938 30.0487C59.5312 29.8865 59.4417 29.6918 59.4316 29.5151C59.4225 29.354 59.4756 29.1643 59.6867 28.9713C62.6891 26.2288 66.1604 26.278 69.4754 27.6786C72.8121 29.0883 75.9254 31.8509 78.0399 34.3966C78.3774 34.803 78.2814 35.3095 77.9491 35.6436C77.786 35.8076 77.5987 35.8902 77.4379 35.8964C77.2953 35.902 77.1189 35.8509 76.9363 35.6309L76.9362 35.6307C75.3264 33.6922 72.7329 31.0906 69.8594 29.5687C68.4198 28.8062 66.8805 28.299 65.3412 28.3063C63.7877 28.3136 62.2651 28.8456 60.8853 30.106Z" stroke="#DF6019"/>
</g>
<path opacity="0.5" d="M54.338 95.6089L54.338 95.6088C55.3687 94.0967 56.1488 92.017 56.0107 89.7204C55.8718 87.41 54.8062 84.9298 52.2305 82.6349C50.9853 81.5253 49.4553 80.1609 48.0842 78.7191C46.7055 77.2694 45.5276 75.7821 44.9514 74.4345C44.6651 73.7648 44.5413 73.1611 44.5907 72.6317C44.6389 72.1156 44.854 71.6377 45.3094 71.2037C46.2546 70.3032 48.2545 69.5749 51.9317 69.326C54.2186 69.1713 56.5852 69.0442 58.9522 68.9171C64.1969 68.6355 69.4437 68.3538 73.8312 67.7704C77.0159 67.347 79.7998 66.7592 81.8311 65.875C83.8463 64.9978 85.2749 63.756 85.4232 61.9511C85.5561 60.3347 85.1522 58.4089 84.6207 56.4786C84.3773 55.5945 84.1028 54.695 83.8331 53.8116C83.8064 53.7241 83.7798 53.6368 83.7532 53.5497C83.4572 52.5792 83.1714 51.6315 82.9372 50.7304C82.4617 48.9014 82.229 47.3666 82.4897 46.2871C82.6151 45.7679 82.8495 45.378 83.2124 45.1017C83.5812 44.8209 84.1314 44.6208 84.9519 44.5764C86.5756 44.4887 87.9766 45.0696 89.3012 46.0175C90.5393 46.9035 91.676 48.0835 92.8476 49.2998C92.9417 49.3975 93.036 49.4953 93.1305 49.5933C95.6124 52.1643 98.3428 54.8806 102.276 54.0668C104.263 53.6558 105.778 52.3047 106.995 50.5949C108.21 48.8862 109.166 46.7618 110.016 44.7064C110.225 44.2017 110.427 43.7025 110.624 43.2138C111.241 41.6887 111.816 40.2666 112.427 39.1057C112.829 38.3432 113.23 37.7249 113.647 37.2818C114.062 36.8401 114.464 36.6014 114.867 36.5357C115.045 36.5067 115.18 36.5323 115.296 36.5903C115.417 36.6517 115.549 36.7661 115.684 36.9619C115.964 37.3651 116.197 38.0201 116.395 38.9094C116.678 40.1798 116.862 41.7843 117.062 43.53C117.141 44.224 117.223 44.9403 117.315 45.6668C117.634 48.1838 118.069 50.8039 118.945 52.8334C119.825 54.8709 121.208 56.4341 123.462 56.5762C125.541 56.7072 127.961 56.1675 130.436 55.3902C132.271 54.8141 134.174 54.0943 136.025 53.3944C136.676 53.1485 137.32 52.905 137.952 52.6711C140.404 51.7637 142.675 51.0013 144.555 50.7364C146.454 50.4688 147.779 50.7317 148.542 51.6473C148.852 52.0197 148.92 52.5439 148.649 53.3226C148.376 54.107 147.79 55.0465 146.962 56.11C145.522 57.96 143.447 60.0691 141.317 62.2336C141.003 62.5534 140.687 62.8744 140.372 63.1959C137.945 65.6716 135.552 68.1864 134.176 70.3605C133.49 71.4437 133.016 72.5024 132.957 73.469C132.927 73.9616 133.004 74.4378 133.222 74.8763C133.439 75.3148 133.784 75.6874 134.245 75.9938C135.905 77.0952 138.381 78.0659 140.875 78.9434C141.774 79.2598 142.676 79.5641 143.549 79.859C145.13 80.3923 146.62 80.8952 147.846 81.3852C148.798 81.7656 149.547 82.122 150.034 82.4565C150.278 82.6243 150.427 82.7669 150.505 82.879C150.578 82.9831 150.568 83.0265 150.566 83.0367C150.561 83.0607 150.532 83.1483 150.358 83.289C150.186 83.4283 149.911 83.5877 149.5 83.7603C148.68 84.1048 147.41 84.4643 145.576 84.8372C138.155 86.3466 134.498 89.0911 133.441 92.2956C132.386 95.4963 134.017 98.8729 136.483 101.425C137.655 102.637 138.69 104.118 139.397 105.583C140.109 107.06 140.462 108.464 140.346 109.539C140.288 110.068 140.12 110.498 139.844 110.828C139.57 111.155 139.161 111.417 138.56 111.562C137.332 111.86 135.353 111.656 132.373 110.554L132.2 111.023L132.373 110.554C126.329 108.319 119.931 107.011 115.198 107.414C112.835 107.615 110.814 108.249 109.476 109.485C108.109 110.75 107.535 112.57 107.932 114.943C108.301 117.151 108.193 118.666 107.755 119.646C107.338 120.577 106.597 121.08 105.482 121.223C104.332 121.37 102.803 121.125 100.918 120.517C99.0435 119.912 96.8635 118.963 94.4288 117.751C89.4794 115.285 85.2747 114.8 81.9624 116.688C78.6715 118.565 76.443 122.686 75.1846 128.978C73.951 135.146 71.2116 139.733 68.7308 142.055C67.4722 143.233 66.3655 143.75 65.607 143.729C65.2527 143.719 64.9725 143.593 64.7524 143.347C64.5216 143.09 64.3248 142.664 64.232 142.006L64.232 142.006C64.145 141.39 64.2495 140.591 64.5347 139.615C64.8179 138.647 65.2669 137.545 65.8299 136.338C66.646 134.59 67.6828 132.661 68.7694 130.639C69.1858 129.864 69.6095 129.076 70.0309 128.279C71.5435 125.418 73.0191 122.458 73.9577 119.702C74.8913 116.962 75.3262 114.334 74.6521 112.177C73.3911 108.142 71.632 104.586 68.5963 102.243C65.5462 99.8883 61.2906 98.8193 55.1742 99.58L55.1742 99.5799L55.1634 99.5814L55.1632 99.5815L55.1629 99.5815L55.1626 99.5816L55.1625 99.5816L55.1558 99.5825C55.1491 99.5834 55.1379 99.5848 55.1228 99.5865C55.0926 99.59 55.0467 99.5947 54.9885 99.5991C54.8714 99.6078 54.7076 99.6148 54.5224 99.6079C54.1358 99.5935 53.7265 99.5205 53.4399 99.3406C53.3047 99.2558 53.204 99.1519 53.138 99.0213C53.0721 98.8908 53.0255 98.7032 53.0463 98.427C53.0893 97.8555 53.417 96.9596 54.338 95.6089Z" stroke="#DF6019"/>
<g opacity="0.4">
<path d="M130.52 79.7992C130.092 79.5174 129.59 79.1776 129.054 78.791C128.733 78.5794 128.411 78.3262 128.102 78.0827C127.995 77.9983 127.889 77.9151 127.786 77.8352L127.774 77.8264L127.763 77.8169C127.354 77.4618 126.927 77.0769 126.541 76.6532C126.432 76.5369 126.338 76.4183 126.255 76.3133C126.245 76.3006 126.235 76.2881 126.226 76.2758C126.152 76.1818 126.088 76.1004 126.019 76.0218L125.987 75.9848L125.962 75.9421C125.915 75.8611 125.864 75.7836 125.802 75.6912C125.791 75.6738 125.779 75.6558 125.766 75.6372C125.695 75.5297 125.612 75.4023 125.541 75.2626C125.263 74.7604 125.094 74.2361 124.978 73.7137L124.976 73.7065L124.976 73.7065C124.861 73.1476 124.857 72.5687 124.879 72.014L124.88 72.004L124.881 71.994C124.927 71.4136 125.038 70.8311 125.168 70.2681L125.17 70.2605L125.172 70.253C125.469 69.1231 125.881 68.0343 126.282 67.1054C126.537 66.4971 126.785 65.9497 126.999 65.4889C126.599 65.7961 126.141 66.1921 125.664 66.6862C124.94 67.4387 124.189 68.4352 123.613 69.6915C123.057 70.9345 122.712 72.4927 123.012 74.0818C123.195 74.8807 123.482 75.6459 123.912 76.2637L123.916 76.2706L123.921 76.2777C124.34 76.9256 124.873 77.4581 125.428 77.8924L130.52 79.7992ZM130.52 79.7992C130.404 79.7872 130.285 79.771 130.162 79.749L130.152 79.7471L130.141 79.7457L130.132 79.7445C129.695 79.6853 129.236 79.6233 128.754 79.4807L128.739 79.4764L128.725 79.4731C128.237 79.3602 127.711 79.1581 127.118 78.911C126.552 78.6371 125.976 78.3195 125.428 77.8924L130.52 79.7992Z" stroke="#DF6019"/>
<path d="M112.942 102.635C113.05 102.691 113.146 102.748 113.237 102.807C112.757 102.79 112.195 102.77 111.572 102.735L111.56 102.734L111.547 102.734C111.35 102.733 111.146 102.721 110.922 102.709C110.897 102.707 110.872 102.706 110.847 102.705C110.602 102.691 110.337 102.678 110.064 102.68C109.532 102.657 108.988 102.661 108.45 102.672L108.45 102.672L108.442 102.673C107.891 102.692 107.333 102.734 106.795 102.808L106.795 102.808L106.786 102.809C106.263 102.891 105.731 103.001 105.248 103.195C104.72 103.368 104.315 103.654 103.973 103.907L103.967 103.912L103.961 103.916C103.572 104.222 103.256 104.6 102.99 105.022C102.452 105.861 102.141 106.896 101.938 107.779C101.798 108.371 101.705 108.926 101.635 109.394C101.468 108.96 101.304 108.422 101.188 107.785C101.033 106.815 100.994 105.614 101.483 104.334L101.483 104.334L101.484 104.331C101.722 103.7 102.103 103.057 102.637 102.545L102.637 102.545L102.642 102.541C103.179 102.012 103.843 101.582 104.519 101.336L104.519 101.336L104.523 101.335C105.224 101.074 105.934 100.938 106.61 100.907L106.61 100.907L106.618 100.906C107.294 100.863 107.946 100.921 108.575 101.013C109.194 101.114 109.772 101.257 110.295 101.431L110.304 101.435L110.314 101.437C110.705 101.551 111.05 101.7 111.406 101.852C111.525 101.904 111.645 101.955 111.769 102.007C112.119 102.168 112.429 102.344 112.729 102.515C112.795 102.552 112.861 102.59 112.927 102.627L112.934 102.631L112.942 102.635Z" stroke="#DF6019"/>
<path d="M61.5177 91.1792C61.6757 90.7065 61.8567 90.142 62.0233 89.5189C62.1429 89.1532 62.2304 88.7511 62.313 88.3709C62.3396 88.2486 62.3657 88.1286 62.3922 88.0128L62.3924 88.0129L62.395 88C62.5037 87.4604 62.5741 86.9059 62.6173 86.3532L62.6182 86.3426L62.6185 86.3319C62.6377 85.7908 62.6412 85.2189 62.5624 84.6497C62.5029 84.0649 62.3414 83.5109 62.1704 82.9957L62.1704 82.9957L62.1683 82.9897C61.4188 80.8241 59.5737 78.9557 58.1419 77.6489L58.1418 77.6489C57.6658 77.2146 57.2208 76.8303 56.8404 76.5088C57.3216 76.6106 57.8921 76.7681 58.5209 77.0048C59.479 77.3831 60.5646 77.9468 61.5769 78.8216L61.5769 78.8216L61.5808 78.8249C62.5907 79.6798 63.5209 80.8809 64.0438 82.3015C64.2816 83.0476 64.4614 83.7814 64.4659 84.4924L64.4659 84.5067L64.4668 84.5209C64.5123 85.2378 64.4073 85.9449 64.2569 86.6289C64.1697 86.9549 64.0692 87.2706 63.9631 87.5808C63.8447 87.8742 63.7156 88.1557 63.5843 88.4349C63.2843 88.9908 63.0112 89.4669 62.7059 89.8451L62.6984 89.8543L62.6914 89.8638C62.389 90.2768 62.08 90.6214 61.7867 90.9044L61.7764 90.9144L61.7666 90.9249C61.6827 91.0157 61.5995 91.1003 61.5177 91.1792Z" stroke="#DF6019"/>
</g>
<path d="M68.9531 65.0781H69.6562C70.125 65.2344 70.3594 65.7031 70.3594 66.4844V97.1875C70.3594 97.9688 70.8281 98.5938 71.7656 99.0625L72 99.5312C71.4792 99.8438 71.0104 100 70.5938 100H63.5625L62.3906 99.7656V99.2969C63.4844 98.5156 64.0312 97.5781 64.0312 96.4844V72.8125C64.0312 72.5 63.7969 72.3438 63.3281 72.3438C62.9115 72.3438 62.3646 72.5781 61.6875 73.0469H60.75V72.1094C63.8229 69.8177 66.5573 67.474 68.9531 65.0781ZM84.4688 64.6094C86.4479 64.9219 88.2448 65.8594 89.8594 67.4219C91.1094 69.5052 91.7344 71.1458 91.7344 72.3438V73.75C91.7344 76.0938 90.4062 78.5938 87.75 81.25V81.4844C90.5625 83.4115 91.9688 86.1458 91.9688 89.6875C91.9688 94.8438 89.9375 98.125 85.875 99.5312C84.4688 99.8438 83.4531 100 82.8281 100C80.4062 99.6875 78.6094 99.0625 77.4375 98.125C75.4062 95.9896 74.3906 93.4896 74.3906 90.625V88.75C74.3906 86.1979 75.9531 83.6979 79.0781 81.25C79.0781 80.9896 78.4531 80.3646 77.2031 79.375C75.7969 77.526 75.0938 75.651 75.0938 73.75V72.8125C75.0938 68.3594 77.5156 65.625 82.3594 64.6094H84.4688ZM80.7188 71.875V72.5781C81.2396 77.2656 82.0208 79.6094 83.0625 79.6094C84.9375 79.6094 85.875 77.3438 85.875 72.8125C85.875 69.0885 85.0938 67.2135 83.5312 67.1875C82.0469 67.1875 81.1094 68.75 80.7188 71.875ZM80.4844 89.9219C80.4844 94.1406 81.2656 96.6406 82.8281 97.4219H83.5312C84.7812 97.0833 85.5625 95.2083 85.875 91.7969V90.1562C85.6667 85.3125 84.7292 82.8906 83.0625 82.8906C81.6042 83.2812 80.7448 85.625 80.4844 89.9219ZM104.398 64.6094H105.102C109.008 65.0781 110.961 66.4844 110.961 68.8281C111.117 68.8281 111.195 69.0625 111.195 69.5312C111.195 71.276 110.336 72.8385 108.617 74.2188H107.914C107.602 74.2188 107.445 74.0625 107.445 73.75C107.758 72.7083 107.992 71.3802 108.148 69.7656C107.836 67.8906 106.977 66.9531 105.57 66.9531C103.122 66.9531 101.638 71.5625 101.117 80.7812L101.586 81.0156C103.044 79.7656 104.529 79.1406 106.039 79.1406C108.591 79.1406 110.622 80.3906 112.133 82.8906C113.07 84.349 113.539 86.4583 113.539 89.2188C113.539 95.0781 111.039 98.5938 106.039 99.7656C105.831 99.9219 105.284 100 104.398 100H103.93C102.81 99.9219 101.326 99.2969 99.4766 98.125C96.3516 94.7917 94.7891 89.7917 94.7891 83.125C94.7891 79.5833 95.4922 75.6771 96.8984 71.4062C98.513 68.0729 100.31 66.0417 102.289 65.3125C103.409 64.8438 104.112 64.6094 104.398 64.6094ZM101.586 90.625C101.586 95.3125 102.602 97.6562 104.633 97.6562C106.143 97.6562 107.003 94.9219 107.211 89.4531C107.211 85.3646 106.508 82.9427 105.102 82.1875H103.93C102.367 83.1771 101.586 85.0521 101.586 87.8125V90.625ZM124.836 64.6094H125.539C129.445 65.0781 131.398 66.4844 131.398 68.8281C131.555 68.8281 131.633 69.0625 131.633 69.5312C131.633 71.276 130.773 72.8385 129.055 74.2188H128.352C128.039 74.2188 127.883 74.0625 127.883 73.75C128.195 72.7083 128.43 71.3802 128.586 69.7656C128.273 67.8906 127.414 66.9531 126.008 66.9531C123.56 66.9531 122.076 71.5625 121.555 80.7812L122.023 81.0156C123.482 79.7656 124.966 79.1406 126.477 79.1406C129.029 79.1406 131.06 80.3906 132.57 82.8906C133.508 84.349 133.977 86.4583 133.977 89.2188C133.977 95.0781 131.477 98.5938 126.477 99.7656C126.268 99.9219 125.721 100 124.836 100H124.367C123.247 99.9219 121.763 99.2969 119.914 98.125C116.789 94.7917 115.227 89.7917 115.227 83.125C115.227 79.5833 115.93 75.6771 117.336 71.4062C118.951 68.0729 120.747 66.0417 122.727 65.3125C123.846 64.8438 124.549 64.6094 124.836 64.6094ZM122.023 90.625C122.023 95.3125 123.039 97.6562 125.07 97.6562C126.581 97.6562 127.44 94.9219 127.648 89.4531C127.648 85.3646 126.945 82.9427 125.539 82.1875H124.367C122.805 83.1771 122.023 85.0521 122.023 87.8125V90.625Z" fill="white" fill-opacity="0.8"/>
</svg>
