<svg width="319" height="303" viewBox="0 0 319 303" fill="none" xmlns="http://www.w3.org/2000/svg">
<path d="M78.7015 152.816L78.6232 153.309L78.7015 152.816C66.665 150.906 53.0153 146.579 44.2723 139.702C39.9068 136.268 36.8013 132.228 35.6922 127.57C34.5857 122.924 35.4465 117.581 39.1724 111.493C42.9639 105.298 47.2321 102 51.8894 100.785C56.5593 99.5668 61.7102 100.418 67.3086 102.707C72.9065 104.995 78.9018 108.7 85.2351 113.121C89.6125 116.177 94.1341 119.562 98.7878 123.045C100.869 124.603 102.976 126.181 105.108 127.757C112.016 132.865 117.097 135.454 120.823 136.321C122.691 136.756 124.243 136.764 125.522 136.418C126.809 136.07 127.79 135.371 128.517 134.445C129.952 132.619 130.372 129.949 130.37 127.415C130.368 124.86 129.934 122.337 129.565 120.713C128.891 117.751 127.237 114.053 125.388 110.101C125.115 109.518 124.838 108.929 124.558 108.335C122.932 104.882 121.229 101.267 119.9 97.7389C118.34 93.5982 117.32 89.6411 117.518 86.2647C117.715 82.9264 119.099 80.1617 122.39 78.3129L122.145 77.8769L122.39 78.3129C124.572 77.0872 126.559 76.5502 128.39 76.5395C130.22 76.5288 131.927 77.0434 133.551 77.97C136.818 79.8348 139.721 83.3509 142.524 87.528C143.92 89.6098 145.281 91.8387 146.645 94.0865C146.75 94.2602 146.855 94.434 146.961 94.6079C148.218 96.6807 149.479 98.7607 150.766 100.732C153.548 104.994 156.497 108.82 159.883 111.024C163.23 113.204 166.267 114.141 169.018 113.934C171.779 113.726 174.174 112.372 176.24 110.127C180.342 105.67 183.235 97.6043 185.298 87.5018C187.357 77.4253 191.233 64.2943 197.053 55.4738C199.965 51.0621 203.321 47.7927 207.118 46.4739C210.88 45.1674 215.174 45.7423 220.07 49.2341L220.36 48.827L220.07 49.2341C222.499 50.9659 224.059 52.972 224.944 55.1758C225.83 57.383 226.051 59.8187 225.754 62.4235C225.157 67.6494 222.481 73.4869 219.037 79.3496C216.325 83.9668 213.162 88.5587 210.21 92.8445C209.417 93.9952 208.64 95.1238 207.89 96.225C206.124 98.8206 204.512 101.265 203.235 103.473C201.961 105.675 201.002 107.674 200.561 109.377C199.69 112.74 199.92 115.662 200.99 118.093C202.06 120.521 203.949 122.415 206.325 123.757C211.064 126.433 217.782 126.939 224.092 125.115C230.184 123.354 235.748 124.468 238.918 127.048C240.498 128.333 241.476 129.972 241.67 131.807C241.865 133.641 241.284 135.74 239.613 137.956L240.012 138.257L239.613 137.956C237.907 140.217 235.289 141.648 232.255 142.655C229.44 143.588 226.326 144.139 223.335 144.668C223.1 144.71 222.866 144.751 222.633 144.793C219.462 145.356 216.44 145.931 214.242 146.982C213.135 147.512 212.201 148.178 211.559 149.057C210.91 149.946 210.585 151.019 210.647 152.308C210.718 153.805 211.934 154.786 213.615 155.461C215.321 156.145 217.702 156.601 220.503 156.948C223.635 157.336 227.379 157.596 231.393 157.875C234.539 158.094 237.852 158.325 241.166 158.637C248.758 159.353 256.434 160.501 262.504 162.914C268.572 165.326 272.934 168.956 274.101 174.584C276.501 186.159 272.825 195.878 265.21 200.383C257.592 204.891 245.815 204.309 231.755 194.801C217.605 185.232 207.362 179.833 200.02 178.065C196.342 177.18 193.341 177.192 190.926 178.094C188.496 179.001 186.725 180.784 185.469 183.302L185.916 183.525L185.469 183.302C184.122 186.003 185.251 188.782 187.281 191.496C188.914 193.68 191.226 195.946 193.585 198.259C194.168 198.831 194.754 199.406 195.334 199.983C198.285 202.922 201.078 205.931 202.646 209.033C204.198 212.104 204.531 215.223 202.627 218.465C201.668 220.097 200.521 221.072 199.241 221.58C197.953 222.09 196.48 222.147 194.839 221.852C191.534 221.259 187.698 219.27 183.647 216.996C182.992 216.628 182.331 216.252 181.667 215.875C178.262 213.941 174.77 211.958 171.451 210.65C167.493 209.09 163.635 208.429 160.376 210.082C158.703 210.93 157.606 212.406 156.902 214.266C156.2 216.118 155.876 218.38 155.759 220.865C155.601 224.252 155.828 228.145 156.057 232.085C156.164 233.906 156.27 235.737 156.34 237.534C156.562 243.269 156.406 248.65 154.753 252.493C153.934 254.399 152.755 255.904 151.088 256.894C149.417 257.886 147.208 258.389 144.279 258.203C138.839 257.858 135.391 256.679 133.269 254.849C131.168 253.036 130.287 250.513 130.148 247.273C130.008 244.017 130.62 240.108 131.441 235.597C131.583 234.816 131.732 234.016 131.884 233.2C132.603 229.328 133.392 225.081 133.925 220.534C134.579 214.965 133.696 210.473 131.724 206.943C129.752 203.414 126.713 200.888 123.121 199.212C115.954 195.868 106.545 195.886 98.7483 198.075C95.0655 199.108 90.7933 200.92 86.3588 202.801C86.1005 202.911 85.8417 203.02 85.5825 203.13C80.8542 205.134 75.958 207.175 71.3293 208.456C66.6922 209.739 62.3958 210.237 58.8467 209.225C55.3397 208.225 52.4908 205.729 50.7607 200.838C49.8946 198.391 49.6919 196.275 49.9921 194.433C50.2919 192.593 51.0984 190.995 52.2987 189.586C54.714 186.751 58.7152 184.692 63.3283 183.055C67.3872 181.614 71.8546 180.521 76.0236 179.501C76.5829 179.364 77.1368 179.228 77.6837 179.093C82.2705 177.962 86.4119 176.866 88.924 175.404C91.6543 173.815 94.6743 172.008 97.0922 170.102C98.3019 169.148 99.3755 168.158 100.191 167.146C101.004 166.136 101.583 165.075 101.759 163.981C101.938 162.869 101.692 161.765 100.934 160.709C100.186 159.669 98.9505 158.69 97.1695 157.77C93.6103 155.929 87.7278 154.248 78.7015 152.816Z" stroke="#DF6019"/>
<path d="M219.212 36.3208C214.879 35.9785 210.581 33.7645 209.186 29.6515C207.807 25.5871 210.079 22.2866 213.284 19.9951C214.878 18.8557 216.667 17.9965 218.258 17.4572C219.873 16.9097 221.204 16.7185 221.906 16.8348C225.702 17.464 227.883 19.641 228.878 22.4523C229.884 25.2961 229.684 28.8248 228.598 32.0927C228.1 33.5893 226.866 34.7298 225.173 35.4602C223.48 36.1908 221.367 36.491 219.212 36.3208Z" stroke="#DF6019"/>
<path d="M257.766 106.04L257.766 106.04C259.945 106.401 261.181 107.64 261.748 109.243C262.326 110.877 262.216 112.925 261.581 114.836C261.308 115.654 260.628 116.295 259.659 116.714C258.689 117.133 257.468 117.308 256.215 117.209C253.686 117.01 251.23 115.722 250.438 113.385C249.662 111.098 250.923 109.221 252.797 107.881C253.725 107.217 254.769 106.716 255.697 106.401C256.649 106.079 257.4 105.979 257.766 106.04Z" stroke="#DF6019"/>
<path d="M297.279 185.252L297.279 185.252C296.006 186.047 294.296 185.81 292.354 184.616C290.427 183.432 288.401 181.374 286.633 178.82C283.084 173.696 280.705 166.773 282.105 161.282C282.799 158.559 284.148 157.155 285.755 156.554C287.396 155.941 289.412 156.124 291.493 156.809C293.564 157.491 295.637 158.649 297.348 159.895C299.068 161.149 300.372 162.455 300.946 163.405C306.804 173.099 303.112 181.61 297.279 185.252Z" stroke="#DF6019"/>
<path d="M150.724 288.539L150.724 288.539C146.889 288.848 144.245 287.265 142.598 284.778C140.933 282.263 140.271 278.791 140.534 275.357L140.534 275.357C140.654 273.784 141.574 272.379 143.04 271.259C144.505 270.14 146.483 269.337 148.614 268.979C152.901 268.261 157.607 269.368 159.958 273.021L159.958 273.021C162.282 276.632 160.877 280.385 158.323 283.384C157.053 284.876 155.526 286.143 154.113 287.051C152.679 287.973 151.433 288.481 150.724 288.539Z" stroke="#DF6019"/>
<path d="M19.1512 120.174C24.6363 118.754 29.5554 113.333 32.3351 107.753C33.72 104.974 34.5466 102.206 34.6557 99.9473C34.7657 97.67 34.1492 96.0576 32.8385 95.3248C26.8364 91.9708 17.5982 92.8377 11.9278 102.641L19.1512 120.174ZM19.1512 120.174C16.4302 120.878 14.5501 120.373 13.2487 119.254M19.1512 120.174L13.2487 119.254M13.2487 119.254C11.9199 118.111 11.1089 116.256 10.7058 114.103M13.2487 119.254L10.7058 114.103M10.7058 114.103C10.3045 111.96 10.3204 109.585 10.5877 107.485M10.7058 114.103L10.5877 107.485M10.5877 107.485C10.8566 105.373 11.3721 103.602 11.9278 102.641L10.5877 107.485Z" stroke="#DF6019"/>
<path d="M219.254 208.287L219.254 208.287C217.336 208.328 215.949 207.125 215.921 205.819C215.895 204.515 217.231 203.255 219.149 203.215L219.149 203.215C221.069 203.174 222.456 204.378 222.484 205.682C222.511 206.986 221.177 208.245 219.254 208.287Z" stroke="#DF6019"/>
<path d="M108.997 112.752L108.997 112.752C107.578 112.78 106.643 113.704 106.661 114.607C106.68 115.508 107.654 116.395 109.072 116.365C110.491 116.334 111.426 115.41 111.407 114.507L108.997 112.752ZM108.997 112.752L108.998 112.752M108.997 112.752L108.998 112.752M108.998 112.752C110.415 112.721 111.388 113.607 111.407 114.507L108.998 112.752Z" stroke="#DF6019"/>
<path d="M212.211 102.55L212.211 102.549C212.193 101.652 211.22 100.764 209.801 100.794L209.801 100.794C208.384 100.823 207.447 101.748 207.464 102.65C207.483 103.55 208.458 104.437 209.875 104.408L212.211 102.55ZM212.211 102.55C212.23 103.452 211.295 104.377 209.876 104.408L212.211 102.55Z" stroke="#DF6019"/>
<path d="M257.982 131.683L257.982 131.684C258 132.585 258.974 133.472 260.393 133.442C261.811 133.412 262.747 132.488 262.728 131.585L257.982 131.683ZM257.982 131.683C257.962 130.784 258.899 129.858 260.317 129.83L260.318 129.83M257.982 131.683L260.318 129.83M260.318 129.83C261.735 129.798 262.708 130.685 262.728 131.585L260.318 129.83Z" stroke="#DF6019"/>
<path d="M25.0346 133.365L25.0346 133.365C25.0155 132.465 24.042 131.578 22.6238 131.608L22.6236 131.608C21.207 131.637 20.2703 132.562 20.2886 133.464C20.3068 134.365 21.2812 135.252 22.6996 135.222L25.0346 133.365ZM25.0346 133.365C25.0541 134.266 24.1193 135.192 22.6997 135.222L25.0346 133.365Z" stroke="#DF6019"/>
<path d="M121.394 214.089L121.393 214.089C119.977 214.119 119.04 215.043 119.058 215.945C119.077 216.846 120.05 217.731 121.468 217.703C122.888 217.672 123.824 216.748 123.805 215.846L121.394 214.089ZM121.394 214.089C122.811 214.058 123.786 214.945 123.805 215.845L121.394 214.089Z" stroke="#DF6019"/>
<g opacity="0.5">
<path d="M262.048 177.965C263.082 175.857 263.85 173.417 263.89 170.998C263.901 170.37 264.375 170.011 264.921 169.983C265.191 169.97 265.43 170.045 265.591 170.177C265.739 170.299 265.86 170.499 265.854 170.835C265.796 174.311 264.648 178.023 262.599 180.807L262.599 180.808C258.318 186.636 251.23 187.291 244.368 186.018L244.368 186.018C244.035 185.957 243.851 185.796 243.75 185.616C243.643 185.424 243.609 185.167 243.665 184.904C243.722 184.642 243.862 184.41 244.052 184.262C244.231 184.122 244.477 184.041 244.806 184.102L244.806 184.102C248.001 184.693 251.469 184.846 254.56 184.011C257.668 183.173 260.396 181.333 262.048 177.965ZM262.048 177.965L261.599 177.745M262.048 177.965C262.048 177.965 262.048 177.965 262.048 177.965L261.599 177.745M261.599 177.745C262.612 175.681 263.351 173.314 263.39 170.989L244.897 183.61C251.206 184.777 258.441 184.181 261.599 177.745Z" stroke="#DF6019"/>
<path d="M61.202 113.699C66.1764 113.653 71.4245 115.467 75.6899 118.15C75.9751 118.33 76.2031 118.328 76.3763 118.265C76.5662 118.196 76.75 118.03 76.8742 117.79C77.1265 117.302 77.0573 116.699 76.5263 116.364C71.6822 113.316 65.8961 111.483 60.4721 111.742C55.0662 112.001 50.0158 114.335 46.5604 119.646L61.202 113.699ZM61.202 113.699C56.2094 113.745 51.4763 115.67 48.3528 120.471M61.202 113.699L48.3528 120.471M48.3528 120.471C48.0096 120.998 47.3968 121.065 46.907 120.812M48.3528 120.471L46.907 120.812M46.907 120.812C46.6661 120.687 46.5036 120.505 46.4375 120.32M46.907 120.812L46.4375 120.32M46.4375 120.32C46.3776 120.152 46.3766 119.929 46.5603 119.646L46.4375 120.32Z" stroke="#DF6019"/>
<path d="M151.395 246.619L151.395 246.619C147.859 246.354 145.66 244.299 144.504 241.597C143.359 238.923 143.225 235.609 143.749 232.698L151.395 246.619ZM151.395 246.619C152.074 246.67 152.44 247.213 152.441 247.806C152.441 248.098 152.346 248.354 152.193 248.521C152.052 248.675 151.825 248.794 151.459 248.767C147.125 248.439 144.373 246.161 142.849 243.034C141.311 239.879 141.017 235.84 141.698 232.058L141.698 232.058M151.395 246.619L141.698 232.058M141.698 232.058L141.699 232.057M141.698 232.058L141.699 232.057M141.699 232.057C141.763 231.699 141.931 231.515 142.112 231.42M141.699 232.057L142.112 231.42M142.112 231.42C142.309 231.317 142.577 231.292 142.86 231.369M142.112 231.42L142.86 231.369M142.86 231.369C143.433 231.524 143.87 232.022 143.749 232.698L142.86 231.369Z" stroke="#DF6019"/>
<path d="M138.862 92.3179L138.861 92.3174C136.914 89.0044 134.059 86.1314 130.837 84.74C127.643 83.3605 124.072 83.4248 120.572 86L138.862 92.3179ZM138.862 92.3179C139.047 92.6318 139.038 92.8815 138.963 93.0709M138.862 92.3179L138.963 93.0709M130.518 86.9088C133.128 88.1914 135.389 90.6174 136.888 93.1665L130.518 86.9088ZM130.518 86.9088C127.881 85.6131 124.873 85.4862 122.018 87.5878M130.518 86.9088L122.018 87.5878M122.018 87.5878C121.469 87.9912 120.838 87.817 120.452 87.3676M122.018 87.5878L120.452 87.3676M138.963 93.0709C138.88 93.277 138.693 93.4707 138.429 93.5967M138.963 93.0709L138.429 93.5967M138.429 93.5967C137.893 93.8519 137.237 93.7589 136.888 93.1667L138.429 93.5967ZM120.452 87.3676C120.261 87.1458 120.167 86.8908 120.174 86.6644M120.452 87.3676L120.174 86.6644M120.174 86.6644C120.181 86.4551 120.276 86.2181 120.572 86.0001L120.174 86.6644Z" stroke="#DF6019"/>
<path d="M206.641 76.9473L206.64 76.9475C206.464 77.2345 206.467 77.466 206.533 77.6434C206.604 77.8369 206.772 78.022 207.012 78.1462C207.498 78.3978 208.092 78.3267 208.419 77.7935C210.895 73.7509 214.056 66.9968 214.736 60.8864C215.077 57.8338 214.792 54.9971 213.55 52.7427C212.321 50.5092 210.115 48.7799 206.463 47.9951L206.462 47.995C206.134 47.9241 205.895 48.0001 205.722 48.131C205.539 48.2703 205.401 48.4963 205.344 48.7589C205.288 49.0216 205.321 49.2845 205.432 49.4873C205.536 49.6782 205.724 49.8467 206.054 49.9177L206.641 76.9473ZM206.641 76.9473C208.55 73.8298 211.681 67.8779 212.737 62.3336M206.641 76.9473L212.737 62.3336M212.737 62.3336C213.265 59.5632 213.287 56.8281 212.316 54.5885M212.737 62.3336L212.316 54.5885M212.316 54.5885C211.329 52.3143 209.349 50.6266 206.054 49.9177L212.316 54.5885Z" stroke="#DF6019"/>
</g>
<path opacity="0.5" d="M111.653 163.692L111.653 163.692C111.757 161.637 111.513 159.104 109.52 156.789C107.541 154.489 103.903 152.484 97.4114 151.299C91.0888 150.146 85.3415 146.493 82.2272 142.59C80.6676 140.635 79.8099 138.67 79.8062 136.966C79.8026 135.305 80.6079 133.812 82.5738 132.73L82.5738 132.73C84.5026 131.668 87.1738 131.79 90.4223 132.654C93.6527 133.514 97.3241 135.07 101.178 136.722L101.547 136.88C105.272 138.477 109.149 140.139 112.884 141.282C116.737 142.461 120.497 143.106 123.83 142.525C130.33 141.393 134.195 139.061 136.06 135.986C137.928 132.907 137.705 129.223 136.352 125.587L136.352 125.587C135.047 122.081 133.931 116.447 134.145 111.846C134.253 109.538 134.693 107.56 135.549 106.238C135.972 105.585 136.49 105.101 137.115 104.806C137.738 104.512 138.5 104.389 139.439 104.511L139.503 104.016L139.439 104.511C141.355 104.76 143.161 105.7 144.973 107.027C146.489 108.137 147.974 109.49 149.516 110.894C149.82 111.171 150.127 111.451 150.437 111.731C154.148 115.086 158.248 118.504 163.529 118.715C168.854 118.929 173.954 115.006 177.952 110.225C181.971 105.419 185.004 99.5949 186.173 95.7089C187.289 91.9999 189.373 89.9061 191.292 89.2155C192.25 88.8706 193.16 88.8748 193.916 89.177C194.666 89.4772 195.308 90.0888 195.709 91.0455L195.709 91.0456C195.873 91.4394 195.89 92.1051 195.726 93.0782C195.566 94.0288 195.25 95.183 194.844 96.4949C194.559 97.4154 194.228 98.4148 193.881 99.4661C193.248 101.38 192.559 103.465 191.982 105.561C191.086 108.818 190.432 112.194 190.655 115.182C190.879 118.187 191.997 120.845 194.679 122.556L194.948 122.135L194.679 122.557C199.815 125.834 206.303 126.605 211.518 127.087C211.922 127.124 212.319 127.16 212.706 127.195C214.839 127.386 216.694 127.553 218.123 127.858C218.966 128.037 219.616 128.256 220.07 128.53C220.513 128.798 220.735 129.094 220.807 129.436C220.856 129.672 220.721 130.076 220.083 130.7C219.478 131.291 218.552 131.951 217.39 132.676C215.975 133.559 214.271 134.501 212.463 135.502C211.295 136.148 210.084 136.818 208.877 137.512C205.835 139.263 202.848 141.156 200.892 143.121C199.913 144.104 199.16 145.137 198.805 146.212C198.442 147.308 198.501 148.429 199.113 149.53C200.25 151.573 202.316 153.381 204.669 155.018C206.731 156.453 209.062 157.787 211.265 159.048C211.583 159.23 211.898 159.41 212.209 159.589C214.698 161.02 216.923 162.35 218.386 163.65C219.116 164.299 219.621 164.911 219.881 165.49C220.134 166.05 220.16 166.579 219.931 167.122C219.74 167.577 219.227 167.94 218.222 168.151C217.231 168.359 215.893 168.389 214.276 168.294C211.876 168.154 208.961 167.747 205.821 167.309C204.731 167.157 203.615 167.002 202.483 166.852C198.115 166.274 193.543 165.789 189.584 166.001C185.648 166.211 182.178 167.114 180.157 169.446C178.144 171.768 177.821 174.572 178.365 177.473C178.905 180.359 180.311 183.397 181.83 186.274C182.402 187.356 182.986 188.411 183.551 189.43C184.505 191.15 185.401 192.768 186.083 194.244C186.622 195.411 187.005 196.449 187.168 197.334C187.331 198.223 187.26 198.896 186.97 199.391C186.706 199.842 186.233 200.104 185.458 200.158C184.67 200.213 183.644 200.043 182.417 199.691C179.986 198.992 176.95 197.633 173.777 196.211L173.706 196.179C170.528 194.756 167.224 193.279 164.35 192.414C162.912 191.981 161.557 191.694 160.362 191.649C159.17 191.604 158.085 191.799 157.24 192.388C155.638 193.504 154.723 195.609 154.125 198.022C153.522 200.454 153.213 203.33 152.92 206.115L152.903 206.274C152.614 209.023 152.335 211.671 151.81 213.797C151.543 214.879 151.218 215.8 150.811 216.517C150.404 217.233 149.932 217.719 149.38 217.979L149.38 217.98C149.108 218.108 148.897 218.137 148.732 218.117C148.569 218.097 148.405 218.023 148.232 217.871C147.865 217.548 147.515 216.919 147.177 215.966C146.653 214.483 146.232 212.439 145.754 210.121C145.622 209.48 145.486 208.817 145.341 208.139C144.683 205.047 143.871 201.688 142.579 198.806C141.29 195.927 139.491 193.453 136.818 192.225C134.181 191.013 130.092 190.806 125.449 191.058C120.781 191.31 115.448 192.035 110.265 192.761C109.947 192.805 109.631 192.85 109.315 192.894C104.458 193.575 99.7793 194.231 95.9117 194.482C93.8525 194.616 92.0425 194.633 90.5698 194.482C89.0817 194.33 88.0095 194.012 87.365 193.534L87.3648 193.534C87.0541 193.304 86.8881 193.066 86.8106 192.828C86.7324 192.588 86.7291 192.301 86.8254 191.949C87.0239 191.222 87.6173 190.321 88.5721 189.254C90.3419 187.275 93.1626 184.929 96.2653 182.349C96.4911 182.161 96.7184 181.972 96.9468 181.782C100.296 178.994 103.881 175.965 106.666 172.914C109.433 169.881 111.499 166.73 111.653 163.692Z" stroke="#DF6019"/>
<g opacity="0.5">
<path d="M196.216 154.577C196.002 154.45 195.776 154.304 195.548 154.129L195.54 154.123L195.532 154.118L195.515 154.105C195.09 153.805 194.639 153.487 194.206 153.069L194.196 153.059L194.184 153.049C193.727 152.658 193.278 152.15 192.789 151.565C192.34 150.963 191.902 150.307 191.555 149.548C191.205 148.781 190.931 147.916 190.845 146.994L190.844 146.985L190.843 146.977C190.727 146.075 190.847 145.098 191.093 144.151C191.652 142.292 192.884 140.824 194.16 139.811C195.465 138.797 196.811 138.153 197.992 137.754C198.936 137.439 199.77 137.261 200.43 137.163C199.898 137.572 199.23 138.089 198.502 138.693C197.575 139.45 196.548 140.365 195.62 141.389L195.616 141.395L195.611 141.4C195.167 141.92 194.734 142.47 194.371 143.049L194.366 143.057L194.361 143.066C194.033 143.636 193.726 144.241 193.546 144.881L193.546 144.881L193.544 144.888C193.382 145.496 193.273 146.132 193.291 146.803C193.289 146.983 193.306 147.159 193.322 147.312C193.325 147.339 193.328 147.366 193.331 147.392C193.345 147.522 193.357 147.634 193.362 147.747L193.365 147.794L193.376 147.841C193.405 147.961 193.427 148.081 193.453 148.215C193.457 148.238 193.461 148.261 193.466 148.284C193.495 148.44 193.529 148.613 193.579 148.79C193.751 149.443 193.988 150.078 194.225 150.675L194.231 150.688L194.237 150.701C194.305 150.848 194.373 150.998 194.442 151.15C194.632 151.572 194.828 152.005 195.046 152.397C195.472 153.241 195.884 153.989 196.216 154.577Z" stroke="#DF6019"/>
<path d="M165.389 184.287C165.593 184.461 165.752 184.634 165.908 184.809C165.816 184.784 165.72 184.758 165.622 184.732C165.067 184.581 164.413 184.403 163.689 184.193L163.677 184.189L163.665 184.186C163.432 184.131 163.194 184.061 162.934 183.984C162.91 183.977 162.885 183.97 162.861 183.963C162.582 183.881 162.281 183.794 161.968 183.724C161.361 183.555 160.732 183.414 160.109 183.28L160.109 183.28L160.099 183.278C159.46 183.154 158.808 183.052 158.17 182.993L158.17 182.993L158.161 182.992C157.536 182.946 156.897 182.929 156.297 183.023C155.655 183.079 155.122 183.295 154.659 183.495L154.652 183.498L154.645 183.501C154.126 183.744 153.666 184.087 153.251 184.5C152.414 185.313 151.778 186.411 151.308 187.376C150.922 188.155 150.628 188.888 150.401 189.47C150.294 188.862 150.217 188.071 150.264 187.128C150.346 185.955 150.63 184.538 151.552 183.173L151.554 183.17C152.004 182.494 152.628 181.846 153.398 181.389L153.398 181.389L153.404 181.386C154.177 180.912 155.072 180.59 155.934 180.489L155.934 180.489L155.94 180.489C156.832 180.374 157.696 180.408 158.495 180.557L158.495 180.557L158.503 180.559C159.305 180.694 160.051 180.94 160.754 181.218C161.448 181.501 162.081 181.825 162.642 182.172L162.651 182.177L162.661 182.183C163.094 182.425 163.466 182.7 163.842 182.978C163.96 183.065 164.077 183.152 164.197 183.238C164.561 183.52 164.874 183.811 165.174 184.088C165.241 184.151 165.308 184.213 165.375 184.275L165.382 184.281L165.389 184.287Z" stroke="#DF6019"/>
<path d="M135.712 148.386C136.323 148.144 137.099 147.832 137.935 147.434C138.343 147.267 138.758 147.046 139.156 146.834C139.298 146.759 139.438 146.685 139.574 146.614L139.58 146.611L139.587 146.607C140.153 146.294 140.705 145.935 141.236 145.55L141.245 145.544L141.253 145.538C141.758 145.14 142.274 144.706 142.723 144.204C143.2 143.707 143.572 143.142 143.906 142.593L143.906 142.593L143.91 142.587C145.277 140.268 145.551 137.186 145.632 134.887L145.632 134.887C145.664 133.962 145.666 133.137 145.661 132.478C145.989 133.041 146.356 133.791 146.685 134.707C147.083 135.872 147.41 137.297 147.397 138.898L147.397 138.898L147.397 138.902C147.399 140.489 147.024 142.268 146.132 143.851C145.638 144.642 145.107 145.378 144.455 145.938L144.444 145.947L144.433 145.958C143.812 146.56 143.083 147.01 142.344 147.403C141.976 147.578 141.612 147.731 141.248 147.872C140.888 147.993 140.53 148.094 140.174 148.19C139.444 148.347 138.793 148.466 138.206 148.481L138.195 148.481L138.183 148.482C137.57 148.525 137.017 148.511 136.528 148.463L136.515 148.462L136.501 148.461C136.214 148.449 135.951 148.421 135.712 148.386Z" stroke="#DF6019"/>
</g>
<path d="M103.531 133.5H112.719V134.062C111.885 134.562 111.385 135.312 111.219 136.312L111.406 136.688V163.5L111.219 164.625C111.385 165.5 111.823 165.938 112.531 165.938V165.75L112.906 165.938C115.781 165.938 117.969 164.125 119.469 160.5L119.844 160.312H120.406C120.406 160.562 120.469 160.688 120.594 160.688C119.552 165.562 118.802 168 118.344 168H103.531V167.625C104.406 167 104.844 166.25 104.844 165.375V136.312C104.844 135.396 104.406 134.646 103.531 134.062V133.5ZM127.131 141.938C130.548 141.938 132.86 143.688 134.069 147.188C134.819 149.688 135.194 151.625 135.194 153C128.319 154.292 124.881 155.167 124.881 155.625C124.756 155.833 124.694 156.083 124.694 156.375V158.25C124.694 163.25 125.756 165.75 127.881 165.75H128.069C129.569 165.75 130.569 164.562 131.069 162.188V161.062C130.902 158.688 130.652 157.5 130.319 157.5C130.444 157.25 130.506 157.062 130.506 156.938C132.173 156.938 133.36 158.375 134.069 161.25V162.188C134.069 164.646 132.569 166.521 129.569 167.812C128.694 167.938 127.944 168 127.319 168C123.548 168 120.923 165.875 119.444 161.625C118.819 159.688 118.506 157.75 118.506 155.812V154.312C118.506 149.812 120.069 146.125 123.194 143.25C124.36 142.375 125.673 141.938 127.131 141.938ZM124.694 151.312V152.438L125.069 152.625H125.631C128.131 152.333 129.381 151.708 129.381 150.75V150C129.09 146.25 128.402 144.375 127.319 144.375C126.069 144.375 125.194 146.688 124.694 151.312ZM146.981 142.719H153.169C153.419 142.76 153.544 142.885 153.544 143.094V143.281C152.794 143.99 152.419 144.74 152.419 145.531V168.219C152.419 173.177 151.794 176.24 150.544 177.406C149.023 179.281 147.023 180.219 144.544 180.219C141.398 180.219 139.46 178.594 138.731 175.344V174.594C138.731 172.677 139.731 171.115 141.731 169.906C141.981 170.031 142.169 170.094 142.294 170.094V170.469C142.294 170.594 142.106 171.469 141.731 173.094V174.969C141.731 176.969 142.669 177.969 144.544 177.969C145.585 177.969 146.21 176.531 146.419 173.656V167.469H146.044C144.731 167.844 143.669 168.031 142.856 168.031C139.169 168.031 136.919 165.156 136.106 159.406V157.719C136.106 157.594 136.044 157.531 135.919 157.531L136.106 157.156V154.531C136.106 148.49 138.544 144.677 143.419 143.094C144.419 142.844 145.606 142.719 146.981 142.719ZM142.106 155.844C142.106 162.094 142.856 165.219 144.356 165.219C144.606 165.219 144.731 165.281 144.731 165.406C145.856 165.406 146.419 164.219 146.419 161.844V147.219C146.419 145.719 146.044 144.969 145.294 144.969C143.294 145.885 142.294 148.51 142.294 152.844C142.169 153.552 142.106 154.552 142.106 155.844ZM164.081 141.938C167.498 141.938 169.81 143.688 171.019 147.188C171.769 149.688 172.144 151.625 172.144 153C165.269 154.292 161.831 155.167 161.831 155.625C161.706 155.833 161.644 156.083 161.644 156.375V158.25C161.644 163.25 162.706 165.75 164.831 165.75H165.019C166.519 165.75 167.519 164.562 168.019 162.188V161.062C167.852 158.688 167.602 157.5 167.269 157.5C167.394 157.25 167.456 157.062 167.456 156.938C169.123 156.938 170.31 158.375 171.019 161.25V162.188C171.019 164.646 169.519 166.521 166.519 167.812C165.644 167.938 164.894 168 164.269 168C160.498 168 157.873 165.875 156.394 161.625C155.769 159.688 155.456 157.75 155.456 155.812V154.312C155.456 149.812 157.019 146.125 160.144 143.25C161.31 142.375 162.623 141.938 164.081 141.938ZM161.644 151.312V152.438L162.019 152.625H162.581C165.081 152.333 166.331 151.708 166.331 150.75V150C166.04 146.25 165.352 144.375 164.269 144.375C163.019 144.375 162.144 146.688 161.644 151.312ZM185.056 142.5C188.681 142.5 190.494 145.125 190.494 150.375V165.75C190.494 166.25 190.869 166.875 191.619 167.625C191.619 167.875 191.494 168 191.244 168H183.744C183.744 167.875 183.681 167.688 183.556 167.438C184.098 167.438 184.41 166.562 184.494 164.812V149.812C184.494 147.188 184.056 145.875 183.181 145.875C181.785 145.875 180.785 146.812 180.181 148.688V165.75C180.181 166.479 180.431 167.104 180.931 167.625C180.931 167.875 180.806 168 180.556 168H173.056V167.25C173.806 167.25 174.181 166.312 174.181 164.438V146.438C174.181 145.021 173.681 144.208 172.681 144V143.625C172.681 143.271 174.681 143.021 178.681 142.875C178.952 143.208 179.14 143.833 179.244 144.75H179.619C181.369 143.25 183.181 142.5 185.056 142.5ZM209.5 131.25L209.688 131.625V167.25C209.688 167.5 209.562 167.625 209.312 167.625C209.042 167.625 208.292 167.25 207.062 166.5C206.792 166.5 206.542 166.438 206.312 166.312C203.521 167.438 201.458 168 200.125 168C196.896 168 194.708 165.5 193.562 160.5C193.438 158.75 193.375 157.25 193.375 156C193.375 149.812 195.188 145.625 198.812 143.438C200.562 142.938 201.875 142.688 202.75 142.688H203.312C203.688 142.562 203.875 142.188 203.875 141.562V136.688C203.875 134.458 203.375 133.021 202.375 132.375V132C202.5 132 202.688 131.938 202.938 131.812C203.062 131.812 203.125 131.875 203.125 132C205.292 131.625 207.417 131.375 209.5 131.25ZM199.562 158.25C199.562 163 200.375 165.375 202 165.375C203.25 165.375 203.875 163.688 203.875 160.312V149.062C203.875 146.312 203.562 144.938 202.938 144.938H202.562C200.938 145.542 199.938 147.917 199.562 152.062V158.25Z" fill="white" fill-opacity="0.8"/>
</svg>
